<svg xmlns="http://www.w3.org/2000/svg" data-name="Layer 1" viewBox="0 0 100 125" x="0px" y="0px"><title>Artboard 99</title><path d="M71,18h0a4,4,0,0,0-3.46,5.92,55.67,55.67,0,0,1,0,52.15A4,4,0,0,0,71,82h0a4,4,0,0,0,3.52-2.07,63.41,63.41,0,0,0,0-59.87A4,4,0,0,0,71,18Z"/><path d="M34.23,23.73A4,4,0,0,0,28,27v0a4.1,4.1,0,0,0,1.82,3.32,23.93,23.93,0,0,1,0,39.17A4.1,4.1,0,0,0,28,72.91v0a4,4,0,0,0,6.23,3.32,31.93,31.93,0,0,0,0-52.53Z"/><path d="M50.82,18a4,4,0,0,0-3.12,6.43,39.77,39.77,0,0,1,0,51.13,4,4,0,0,0,6.2,5,47.68,47.68,0,0,0,0-61.19A4,4,0,0,0,50.82,18Z"/><path d="M25.68,38.15a4,4,0,0,0-6.68,3v0a3.89,3.89,0,0,0,1.3,2.92,7.9,7.9,0,0,1,0,11.89A3.89,3.89,0,0,0,19,58.86v0a4,4,0,0,0,6.68,3,15.86,15.86,0,0,0,0-23.7Z"/><text x="0" y="115" fill="#000000" font-size="5px" font-weight="bold" font-family="'Helvetica Neue', Helvetica, Arial-Unicode, Arial, Sans-serif">Created by Gregor Cresnar</text><text x="0" y="120" fill="#000000" font-size="5px" font-weight="bold" font-family="'Helvetica Neue', Helvetica, Arial-Unicode, Arial, Sans-serif">from the Noun Project</text></svg>